<?xml version="1.0" standalone="no"?>
<!DOCTYPE svg PUBLIC "-//W3C//DTD SVG 20010904//EN"
 "http://www.w3.org/TR/2001/REC-SVG-20010904/DTD/svg10.dtd">
<svg version="1.0" xmlns="http://www.w3.org/2000/svg"
 width="630.000000pt" height="630.000000pt" viewBox="0 0 630.000000 630.000000"
 preserveAspectRatio="xMidYMid meet">
<metadata>
Created by potrace 1.11, written by Peter Selinger 2001-2013
</metadata>
<g transform="translate(0.000000,630.000000) scale(0.100000,-0.100000)"
fill="#000000" stroke="none">
<path d="M3390 6045 c-7 -8 -16 -13 -20 -10 -24 15 -29 -46 -20 -210 4 -54 -6
-98 -20 -90 -9 6 -24 -13 -25 -30 -1 -5 -6 -9 -12 -8 -7 2 -23 -11 -37 -28
-14 -17 -26 -28 -26 -25 0 3 -9 -2 -19 -11 -11 -9 -17 -21 -14 -26 3 -6 1 -7
-5 -3 -6 3 -19 -5 -30 -19 -11 -13 -22 -21 -26 -18 -3 3 -6 0 -6 -9 0 -8 -10
-23 -22 -34 -15 -12 -19 -14 -13 -4 8 13 7 13 -5 0 -8 -9 -17 -17 -20 -17 -23
-7 -61 -23 -160 -70 -63 -31 -137 -62 -165 -70 -27 -8 -70 -26 -94 -40 -49
-29 -27 -27 -500 -37 -178 -3 -212 -2 -260 14 -75 24 -196 82 -287 136 -81 47
-150 74 -190 74 -16 0 -37 12 -57 33 -16 17 -34 31 -38 30 -5 -2 -6 4 -3 12 3
8 -6 26 -21 41 -21 21 -32 25 -57 20 -62 -12 -75 -75 -27 -137 26 -34 26 -36
8 -47 -26 -17 -89 -16 -89 2 0 7 -26 29 -57 48 -69 41 -93 52 -112 49 -8 -2
-21 5 -28 15 -12 16 -13 14 -13 -20 0 -26 4 -35 12 -30 8 5 9 0 6 -14 -4 -15
1 -27 16 -40 22 -17 24 -29 11 -83 -6 -21 -1 -31 21 -48 29 -23 59 -24 134 -6
22 6 27 1 47 -42 12 -26 32 -54 45 -62 31 -19 87 -31 94 -20 3 5 21 9 41 9 26
0 34 -4 30 -14 -3 -8 7 -31 23 -53 16 -21 30 -44 30 -50 0 -7 5 -13 11 -13 5
0 8 -4 5 -9 -3 -5 1 -11 9 -15 8 -3 15 -12 15 -21 0 -8 5 -15 12 -15 6 0 9 -3
5 -6 -3 -3 5 -18 18 -32 13 -14 22 -29 20 -33 -3 -4 2 -9 10 -13 8 -3 15 -12
15 -21 0 -8 5 -15 11 -15 5 0 7 -4 4 -10 -3 -5 -3 -10 2 -10 9 0 47 -63 41
-68 -1 -2 5 -8 15 -13 9 -6 17 -17 17 -24 0 -8 4 -15 9 -15 5 0 14 -13 21 -30
7 -16 15 -30 19 -30 4 0 15 -17 26 -37 11 -21 28 -47 37 -58 10 -11 17 -24 17
-28 0 -4 6 -14 13 -22 32 -35 69 -91 67 -101 0 -4 3 -10 8 -13 15 -10 78 -105
75 -113 -1 -5 2 -8 8 -8 6 0 9 -3 9 -7 -3 -21 4 -35 39 -72 53 -57 62 -69 62
-79 0 -4 9 -18 20 -30 12 -12 18 -22 15 -22 -3 0 -1 -6 5 -12 9 -10 95 -141
228 -344 7 -10 19 -33 27 -51 8 -17 19 -35 25 -38 6 -4 8 -11 5 -16 -4 -5 -2
-9 2 -9 5 0 17 -17 28 -37 11 -21 24 -41 28 -44 5 -3 9 -10 9 -15 1 -20 18
-54 38 -74 11 -11 18 -25 15 -30 -3 -4 -1 -10 3 -12 8 -3 108 -163 102 -163
-2 0 6 -18 17 -40 56 -110 136 -356 149 -455 2 -19 9 -64 14 -100 29 -178 35
-290 35 -610 0 -345 -8 -486 -32 -595 -4 -16 -8 -36 -9 -44 -7 -38 -27 -117
-33 -126 -3 -5 -6 -16 -7 -22 -5 -29 -37 -103 -46 -103 -5 0 -6 -4 -3 -10 3
-5 1 -10 -5 -10 -6 0 -8 -4 -5 -10 3 -5 -6 -21 -21 -35 -15 -14 -24 -25 -21
-25 3 0 -17 -24 -46 -53 -29 -29 -55 -51 -59 -49 -5 2 -8 -1 -8 -7 0 -8 -49
-29 -83 -35 -7 -1 -22 -8 -34 -14 -13 -7 -23 -11 -23 -8 0 3 -19 -3 -42 -13
-59 -25 -81 -34 -95 -37 -6 -1 -28 -7 -48 -14 -20 -7 -39 -10 -41 -7 -8 8 -86
-22 -109 -41 -34 -29 -55 -70 -55 -107 0 -19 -4 -43 -9 -53 -30 -58 -34 -72
-24 -84 5 -7 16 -34 23 -61 7 -26 17 -50 22 -53 4 -3 6 -10 3 -15 -4 -5 -1 -9
5 -9 6 0 8 -5 5 -10 -4 -6 -1 -9 7 -8 7 2 12 -4 10 -12 -2 -8 0 -12 3 -8 4 4
23 -4 41 -19 19 -14 34 -23 34 -20 0 3 12 -5 26 -18 15 -14 33 -25 40 -25 7 0
14 -3 16 -8 5 -12 124 -49 233 -73 107 -23 159 -44 189 -78 19 -21 26 -21 368
-21 l349 0 33 25 c18 13 48 27 67 29 19 3 57 8 84 12 28 4 57 9 65 10 8 1 35
7 60 14 25 7 50 13 55 15 6 1 17 5 25 8 8 3 40 13 70 24 30 10 57 21 60 24 3
3 16 10 30 14 48 14 99 78 108 135 4 32 29 70 46 70 24 0 12 108 -20 175 -15
33 -32 62 -36 63 -5 2 -5 9 -2 14 5 7 2 8 -5 4 -8 -5 -14 0 -18 13 -3 12 -8
21 -12 21 -3 0 -18 10 -32 23 -14 12 -36 28 -48 35 -62 36 -92 52 -96 52 -5 0
-8 1 -22 5 -5 1 -25 5 -45 9 -21 5 -38 12 -38 18 0 5 -3 7 -8 4 -4 -2 -43 5
-87 15 -44 11 -87 22 -95 24 -8 2 -19 4 -23 4 -5 1 -5 6 -2 11 4 6 3 10 -2 9
-19 -3 -31 3 -61 29 -18 16 -32 34 -32 41 0 7 -4 10 -8 7 -10 -6 -46 40 -56
72 -4 12 -12 22 -17 22 -6 0 -7 4 -4 10 3 5 1 10 -6 10 -7 0 -9 3 -6 7 4 3 0
15 -10 25 -9 10 -13 18 -9 18 3 0 -1 11 -10 25 -9 14 -13 25 -10 25 4 0 0 13
-8 29 -9 16 -12 32 -8 35 3 4 -1 4 -11 0 -17 -6 -25 15 -10 30 11 10 10 40 -1
47 -5 4 -11 45 -13 90 -2 46 -6 107 -8 134 -6 58 -6 480 0 575 11 176 19 266
31 355 4 28 8 60 10 72 1 12 5 34 8 50 3 15 8 44 11 63 4 19 11 55 16 80 6 25
12 52 14 60 3 15 28 104 41 149 5 17 4 22 -4 17 -7 -4 -12 -3 -12 3 0 5 8 12
18 15 10 4 19 12 19 19 0 21 81 195 100 215 7 7 13 18 13 24 0 6 11 26 26 45
14 18 21 33 17 33 -4 0 0 5 10 11 9 6 15 14 13 18 -3 4 3 17 13 28 11 11 26
33 34 50 24 45 99 158 109 161 4 2 8 10 8 18 0 8 5 14 11 14 5 0 8 4 5 8 -3 5
4 14 14 22 10 8 17 17 14 22 -3 4 2 11 10 14 9 3 16 12 16 20 0 8 4 14 9 14 5
0 13 9 16 20 4 11 11 18 16 14 5 -3 8 -2 7 3 -4 12 42 83 54 83 6 0 8 3 5 6
-4 4 1 14 11 23 9 9 18 23 20 31 2 8 11 22 22 31 11 9 16 19 13 23 -3 3 2 8
11 12 9 3 16 10 16 15 0 11 111 162 123 167 4 2 7 10 7 18 0 8 7 17 15 20 8 4
15 11 15 18 0 6 16 28 35 49 19 21 35 41 35 44 0 3 12 17 27 31 16 14 35 40
43 58 21 46 90 124 109 124 20 0 40 -31 56 -85 10 -34 10 -42 -3 -51 -13 -10
-10 -15 24 -38 36 -24 164 -79 164 -71 0 2 15 -1 33 -6 17 -6 50 -12 72 -15
22 -2 54 -6 71 -9 36 -6 212 27 252 48 106 55 137 79 252 195 120 122 170 181
174 205 1 7 13 32 26 57 13 25 25 50 26 55 1 6 10 30 19 55 16 43 19 54 30
118 15 87 15 182 0 256 -16 79 -99 281 -140 343 -28 42 -123 142 -178 187
-107 87 -270 140 -468 151 -98 6 -127 4 -208 -15 -149 -35 -281 -108 -372
-205 -39 -41 -129 -195 -129 -220 0 -7 -7 -21 -16 -29 -8 -9 -12 -20 -9 -26 3
-5 2 -10 -2 -10 -5 0 -10 -12 -11 -26 -1 -15 -6 -32 -11 -38 -4 -6 -8 -18 -8
-26 0 -8 -8 -40 -17 -71 l-17 -57 -62 23 c-34 12 -61 26 -59 30 2 5 -10 14
-26 21 -26 10 -32 22 -51 95 -30 116 -47 156 -87 210 l-34 47 22 38 c12 21 23
44 24 52 3 19 35 52 50 52 7 0 18 9 24 20 6 11 14 19 18 18 16 -4 48 13 61 33
12 20 11 21 -6 14 -19 -8 -63 -8 -71 0 -3 3 -1 15 5 28 6 12 14 30 17 40 7 21
25 22 32 3 3 -8 12 -12 19 -10 11 5 10 9 -3 25 -15 18 -31 19 -213 19 -162 0
-199 -3 -209 -15z"/>
<path d="M762 5708 c-30 -30 -5 -96 47 -123 25 -12 31 -12 51 2 18 13 21 22
17 50 -9 56 -32 83 -70 83 -18 0 -38 -5 -45 -12z"/>
<path d="M890 5550 c0 -5 5 -10 11 -10 5 0 7 5 4 10 -3 6 -8 10 -11 10 -2 0
-4 -4 -4 -10z"/>
</g>
</svg>
